<svg width="90" height="90" viewBox="0 0 90 90" fill="none" xmlns="http://www.w3.org/2000/svg">
<rect width="90" height="90" rx="17" fill="#BC04FE"/>
<g clip-path="url(#clip0_39_91)">
<path d="M67.7242 22.9527C66.1022 22.9292 62.3344 23.47 56.0437 27.6056C52.6152 26.764 48.9672 26.3486 45.313 26.3486C41.2923 26.3486 37.2292 26.8501 33.44 27.8711C24.4083 21.819 20.4218 23.0592 20.4218 23.0592C17.8192 29.452 19.4275 34.1851 19.9163 35.3605C16.8574 38.6033 14.99 42.7442 14.99 47.8194C14.99 51.6508 15.4339 55.0873 16.5186 58.0747C16.5788 58.3052 16.5593 58.2538 16.6606 58.4512C16.8996 59.0696 17.1653 59.6699 17.4639 60.2497C17.5662 60.4583 17.6593 60.6127 17.6593 60.6127C20.7084 66.1954 26.7191 69.8017 37.4135 70.934L53.5882 70.952C64.9933 69.8411 70.4661 66.2241 72.9881 60.6037L73.1484 60.2377C73.3874 59.6699 73.5957 59.0792 74.1655 57.0907C74.7352 55.1022 74.9901 51.6584 74.9901 47.8178C74.9901 42.3096 72.8839 37.9021 69.4636 34.549C70.0613 32.654 70.8598 28.4454 68.6665 23.0577C68.6665 23.0577 68.359 22.9619 67.7243 22.9527L67.7242 22.9527ZM54.9778 43.1664C57.6114 43.1608 59.8673 43.6049 61.561 45.3503V45.3518C63.6803 47.5378 64.9205 50.177 64.9205 53.0212C64.9205 66.3008 56.2255 66.662 45.5008 66.662C34.7742 66.662 26.0811 64.8218 26.0811 53.0212C26.0811 50.1958 27.3032 47.5724 29.3964 45.3953C32.888 41.767 38.7967 43.6883 45.5009 43.6883C48.9422 43.6878 52.1743 43.1723 54.9779 43.1663L54.9778 43.1664ZM35.0006 47.0768C32.7691 47.0768 30.96 50.0404 30.96 53.6978C30.96 57.3557 32.769 60.3202 35.0006 60.3202C37.2322 60.3202 39.0413 57.3557 39.0413 53.6978C39.0413 50.0409 37.2323 47.0795 35.0006 47.0768ZM56.6804 47.0768C54.4488 47.0768 52.6397 50.0404 52.6397 53.6978C52.6397 57.3557 54.4487 60.3202 56.6804 60.3202C58.912 60.3202 60.7211 57.3557 60.7211 53.6978C60.7211 50.0409 58.9121 47.0795 56.6804 47.0768Z" fill="white"/>
</g>
<defs>
<clipPath id="clip0_39_91">
<rect width="60" height="48" fill="white" transform="translate(15 23)"/>
</clipPath>
</defs>
</svg>
