<svg width="50" height="50" viewBox="0 0 90 90" fill="none" xmlns="http://www.w3.org/2000/svg">
<rect width="90" height="90" rx="17" fill="#BC04FE"/>
<path d="M32.4824 27.875C32.4818 29.1348 31.9807 30.3427 31.0895 31.2331C30.1983 32.1234 28.9898 32.6233 27.73 32.6226C26.4703 32.622 25.2623 32.1209 24.372 31.2297C23.4816 30.3385 22.9818 29.13 22.9824 27.8702C22.9831 26.6105 23.4841 25.4025 24.3753 24.5122C25.2666 23.6218 26.475 23.122 27.7348 23.1226C28.9946 23.1233 30.2025 23.6243 31.0929 24.5155C31.9832 25.4068 32.4831 26.6152 32.4824 27.875ZM32.6249 36.14H23.1249V65.875H32.6249V36.14ZM47.6349 36.14H38.1824V65.875H47.5399V50.2712C47.5399 41.5788 58.8687 40.7712 58.8687 50.2712V65.875H68.2499V47.0412C68.2499 32.3875 51.4824 32.9337 47.5399 40.13L47.6349 36.14Z" fill="white"/>
</svg>
