<svg width="90" height="90" viewBox="0 0 90 90" fill="none" xmlns="http://www.w3.org/2000/svg">
<rect width="90" height="90" rx="17" fill="#BC04FE"/>
<path d="M31.45 17.5H54.55C63.35 17.5 70.5 24.65 70.5 33.45V56.55C70.5 60.7802 68.8196 64.8372 65.8284 67.8284C62.8372 70.8196 58.7802 72.5 54.55 72.5H31.45C22.65 72.5 15.5 65.35 15.5 56.55V33.45C15.5 29.2198 17.1804 25.1629 20.1716 22.1716C23.1629 19.1804 27.2198 17.5 31.45 17.5ZM30.9 23C28.2744 23 25.7563 24.043 23.8996 25.8996C22.043 27.7563 21 30.2744 21 32.9V57.1C21 62.5725 25.4275 67 30.9 67H55.1C57.7256 67 60.2437 65.957 62.1004 64.1004C63.957 62.2437 65 59.7256 65 57.1V32.9C65 27.4275 60.5725 23 55.1 23H30.9ZM57.4375 27.125C58.3492 27.125 59.2235 27.4872 59.8682 28.1318C60.5128 28.7765 60.875 29.6508 60.875 30.5625C60.875 31.4742 60.5128 32.3485 59.8682 32.9932C59.2235 33.6378 58.3492 34 57.4375 34C56.5258 34 55.6515 33.6378 55.0068 32.9932C54.3622 32.3485 54 31.4742 54 30.5625C54 29.6508 54.3622 28.7765 55.0068 28.1318C55.6515 27.4872 56.5258 27.125 57.4375 27.125ZM43 31.25C46.6467 31.25 50.1441 32.6987 52.7227 35.2773C55.3013 37.8559 56.75 41.3533 56.75 45C56.75 48.6467 55.3013 52.1441 52.7227 54.7227C50.1441 57.3013 46.6467 58.75 43 58.75C39.3533 58.75 35.8559 57.3013 33.2773 54.7227C30.6987 52.1441 29.25 48.6467 29.25 45C29.25 41.3533 30.6987 37.8559 33.2773 35.2773C35.8559 32.6987 39.3533 31.25 43 31.25ZM43 36.75C40.812 36.75 38.7135 37.6192 37.1664 39.1664C35.6192 40.7135 34.75 42.812 34.75 45C34.75 47.188 35.6192 49.2865 37.1664 50.8336C38.7135 52.3808 40.812 53.25 43 53.25C45.188 53.25 47.2865 52.3808 48.8336 50.8336C50.3808 49.2865 51.25 47.188 51.25 45C51.25 42.812 50.3808 40.7135 48.8336 39.1664C47.2865 37.6192 45.188 36.75 43 36.75Z" fill="white"/>
</svg>
